<?xml version="1.0" encoding="utf-8"?>
<!-- Generator: Adobe Illustrator 17.1.0, SVG Export Plug-In . SVG Version: 6.00 Build 0)  -->
<!DOCTYPE svg PUBLIC "-//W3C//DTD SVG 1.1//EN" "http://www.w3.org/Graphics/SVG/1.1/DTD/svg11.dtd">
<svg version="1.1" id="Layer_1" xmlns="http://www.w3.org/2000/svg" xmlns:xlink="http://www.w3.org/1999/xlink" x="0px" y="0px"
	 viewBox="0 0 500 343.694" enable-background="new 0 0 500 343.694" xml:space="preserve">
<polyline fill="#70A34F" points="-150,53.194 -178,3.694 -115,10.194 -106,28.444 -99.75,29.694 -100,3.694 -35.5,53.194 "/>
<polyline fill="#70A34F" points="-150,53.194 -178,102.694 -115,96.194 -106,77.944 -99.75,76.694 -100,102.694 -35.5,53.194 "/>
<g>
	<path fill="#FFFFFF" d="M-129.681,47.14v19.549h-3.817V39.698h5.321l4.357,16.156V39.698h3.779v26.991h-4.357L-129.681,47.14z"/>
	<path fill="#FFFFFF" d="M-112.752,51.073h5.822v3.856h-5.822v7.904h7.326v3.856h-11.568V39.698h11.568v3.856h-7.326V51.073z"/>
	<path fill="#FFFFFF" d="M-88.651,39.698l-4.435,13.11l4.743,13.881h-4.473l-3.471-10.681l-3.509,10.681h-3.972l4.743-13.881
		l-4.435-13.11h4.396l3.201,9.948l3.277-9.948H-88.651z"/>
	<path fill="#FFFFFF" d="M-87.454,39.698h13.11v3.856h-4.435v23.135h-4.241V43.554h-4.435V39.698z"/>
</g>
<path fill="#70A34F" d="M496.711,171.847L272.789,0l0.868,90.263l-21.698-4.34l-31.245-63.358L2,0l97.206,171.847L2,343.694
	l218.714-22.566l31.245-63.358l21.698-4.34l-0.868,90.263L496.711,171.847z M193.698,198.984h-2.248
	c-0.688,0-1.285-0.321-1.697-0.917l-42.198-56.326c0.091,0.917,0.137,1.789,0.137,2.614v54.629h-4.082V134.08h2.293
	c0.872,0,1.238,0.138,1.789,0.872l42.015,56.234c-0.092-0.917-0.138-1.788-0.138-2.66V134.08h4.128V198.984z M251.862,137.979
	H217.69v26.237h28.438v3.807H217.69v27.062h34.172v3.898h-38.896V134.08h38.896V137.979z M314.155,134.08h50.409v3.991h-22.797
	v60.913h-4.679v-60.913h-22.934V134.08z M264.294,197.837c-0.412,0.55-0.963,1.146-1.696,1.146h-4.267l23.438-33.3l-22.383-31.604
	h4.633c0.871,0,1.146,0.413,1.468,0.917l19.723,28.438c0.184-0.504,0.367-0.917,0.688-1.422l19.035-26.97
	c0.366-0.504,0.779-0.963,1.376-0.963h4.495l-22.43,31.374l23.347,33.529h-4.633c-0.871,0-1.284-0.643-1.605-1.146l-20.457-29.906
	c-0.138,0.459-0.321,0.918-0.642,1.33L264.294,197.837z"/>
</svg>
