<?xml version="1.0" encoding="utf-8"?>
<!-- Generator: Adobe Illustrator 17.1.0, SVG Export Plug-In . SVG Version: 6.00 Build 0)  -->
<!DOCTYPE svg PUBLIC "-//W3C//DTD SVG 1.1//EN" "http://www.w3.org/Graphics/SVG/1.1/DTD/svg11.dtd">
<svg version="1.1" id="Layer_1" xmlns="http://www.w3.org/2000/svg" xmlns:xlink="http://www.w3.org/1999/xlink" x="0px" y="0px"
	 viewBox="0 0 32 32" enable-background="new 0 0 32 32" xml:space="preserve">
<polyline fill="#70A34F" points="-9.6,8.4 -11.4,5.2 -7.4,5.7 -6.8,6.8 -6.4,6.9 -6.4,5.2 -2.3,8.4 "/>
<polyline fill="#70A34F" points="-9.6,8.4 -11.4,11.6 -7.4,11.2 -6.8,10 -6.4,9.9 -6.4,11.6 -2.3,8.4 "/>
<g>
	<path fill="#FFFFFF" d="M-8.3,8v1.3h-0.2V7.5h0.3l0.3,1v-1h0.2v1.7H-8L-8.3,8z"/>
	<path fill="#FFFFFF" d="M-7.2,8.3h0.4v0.2h-0.4V9h0.5v0.2h-0.7V7.5h0.7v0.2h-0.5V8.3z"/>
	<path fill="#FFFFFF" d="M-5.7,7.5L-6,8.4l0.3,0.9h-0.3l-0.2-0.7l-0.2,0.7h-0.3l0.3-0.9l-0.3-0.8h0.3l0.2,0.6l0.2-0.6
		C-5.9,7.5-5.7,7.5-5.7,7.5z"/>
	<path fill="#FFFFFF" d="M-5.6,7.5h0.8v0.2H-5v1.5h-0.3V7.8h-0.3L-5.6,7.5L-5.6,7.5z"/>
</g>
<polyline fill="#70A34F" points="41.9,13.9 35.6,2.9 49.6,4.3 51.6,8.4 53,8.6 53,2.9 67.3,13.9 "/>
<polyline fill="#70A34F" points="41.9,13.9 35.6,24.9 49.6,23.4 51.6,19.4 53,19.1 53,24.9 67.3,13.9 "/>
<g>
	<path fill="#FFFFFF" d="M45.5,11.5l2.7,3.6c0-0.1,0-0.1,0-0.2v-3.5h0.3v4.2h-0.1c0,0-0.1,0-0.1-0.1l-2.7-3.6c0,0.1,0,0.1,0,0.2v3.5
		h-0.3v-4.2h0.1C45.5,11.5,45.5,11.5,45.5,11.5z"/>
	<path fill="#FFFFFF" d="M52.2,11.5v0.2H50v1.7h1.8v0.2H50v1.7h2.2v0.2h-2.5v-4.2C49.7,11.5,52.2,11.5,52.2,11.5z"/>
	<path fill="#FFFFFF" d="M54.1,13.5l-1.4-2H53c0.1,0,0.1,0,0.1,0.1l1.3,1.8c0,0,0-0.1,0-0.1l1.2-1.7c0,0,0-0.1,0.1-0.1H56l-1.4,2
		l1.5,2.1h-0.3c-0.1,0-0.1,0-0.1-0.1l-1.3-1.9c0,0,0,0.1,0,0.1L53,15.5c0,0-0.1,0.1-0.1,0.1h-0.3L54.1,13.5z"/>
	<path fill="#FFFFFF" d="M59.4,11.5v0.3H58v3.9h-0.3v-3.9h-1.5v-0.3C56.2,11.5,59.4,11.5,59.4,11.5z"/>
</g>
<g>
	<path fill="#70A34F" d="M35.6,39.1c0,0.1-0.1,0.2-0.1,0.2l-0.8,2.1h1.9l-0.8-2.1C35.6,39.3,35.6,39.2,35.6,39.1z"/>
	<path fill="#70A34F" d="M31.9,41h-1v1.7h1c0.7,0,1.1-0.3,1.1-0.9C33,41.3,32.6,41,31.9,41z"/>
	<path fill="#70A34F" d="M32.8,39.9c0-0.6-0.3-0.9-1.1-0.9h-0.9v1.7h0.9C32.5,40.8,32.8,40.4,32.8,39.9z"/>
	<path fill="#70A34F" d="M54.3,30.3l-14,1.4l-2,4.1L37,36l0.1-5.8l-14.3,11l14.3,11L37,46.5l1.4,0.3l2,4.1l14,1.4l-6.2-11L54.3,30.3
		z M31.9,43h-1.3v-4.2h1.2c0.9,0,1.4,0.4,1.4,1.1c0,0.4-0.3,0.8-0.8,1c0.7,0.1,1,0.4,1,1C33.3,42.6,32.8,43,31.9,43z M37.2,43
		c-0.1,0-0.1,0-0.1-0.1l-0.5-1.2h-2l-0.5,1.2c0,0-0.1,0.1-0.1,0.1h-0.2l1.7-4.2h0.3l1.7,4.2H37.2z M39.7,43c-1.2,0-2-0.8-2-2.1
		c0-1.3,0.8-2.1,2-2.1c0.6,0,1,0.2,1.4,0.5L41,39.4c0,0,0,0-0.1,0c-0.1,0-0.4-0.4-1.2-0.4c-1,0-1.7,0.7-1.7,1.9
		c0,1.2,0.7,1.9,1.7,1.9c0.6,0,0.9-0.2,1.2-0.5c0,0,0,0,0.1,0c0,0,0,0,0,0l0.1,0.1C40.8,42.8,40.4,43,39.7,43z M45,43
		c-0.1,0-0.1,0-0.2-0.1l-1.8-1.8C43,41,43,41,42.8,41h-0.3v2h-0.3v-4.2h0.3v1.9h0.2c0.1,0,0.2,0,0.3-0.1l1.7-1.7
		c0.1-0.1,0.1-0.1,0.2-0.1h0.2l-1.8,1.9c-0.1,0.1-0.1,0.1-0.2,0.1c0.1,0,0.1,0.1,0.2,0.1l1.9,2C45.3,43,45,43,45,43z"/>
</g>
<g>
	<path fill="#70A34F" d="M10.1,14.1H9.3v2h0.8c0.7,0,1.2-0.4,1.2-1C11.3,14.5,10.9,14.1,10.1,14.1z"/>
	<path fill="#70A34F" d="M14.8,15c0-0.6-0.4-0.9-1.1-0.9h-0.8V16h0.7C14.3,16,14.8,15.6,14.8,15z"/>
	<path fill="#70A34F" d="M31.7,5l-14,1.4l-2,4.1l-1.4,0.3L14.3,5L0,16l14.3,11l-0.1-5.8l1.4,0.3l2,4.1l14,1.4l-6.2-11L31.7,5z
		 M10.1,16.4H9.3v1.7H9v-4.2h1.1c1,0,1.5,0.4,1.5,1.2C11.6,15.9,11,16.4,10.1,16.4z M15.2,18.1c-0.1,0-0.1,0-0.1-0.1l-1.3-1.7
		c-0.1-0.1-0.1-0.1-0.3-0.1h-0.5v1.9h-0.3v-4.2h1.1c1,0,1.4,0.4,1.4,1.1c0,0.6-0.5,1.1-1.2,1.2c0,0,0.1,0.1,0.1,0.1l1.4,1.8H15.2z
		 M18.7,14.2h-2.2v1.7h1.8v0.2h-1.8v1.7h2.2v0.3h-2.5v-4.2h2.5V14.2z M21.1,18.1h-0.3l-1.7-4.2h0.2c0.1,0,0.1,0,0.1,0.1l1.4,3.5
		c0,0.1,0.1,0.2,0.1,0.3c0-0.1,0.1-0.2,0.1-0.3l1.4-3.5c0,0,0.1-0.1,0.1-0.1h0.2L21.1,18.1z"/>
</g>
</svg>
