<?xml version="1.0" encoding="utf-8"?>
<!-- Generator: Adobe Illustrator 18.1.1, SVG Export Plug-In . SVG Version: 6.00 Build 0)  -->
<svg version="1.1" id="Layer_1" xmlns="http://www.w3.org/2000/svg" xmlns:xlink="http://www.w3.org/1999/xlink" x="0px" y="0px"
	 viewBox="5 336.1 600.7 115.2" enable-background="new 5 336.1 600.7 115.2" xml:space="preserve">
<g>
	<path opacity="0.48" fill="#FFFFFF" enable-background="new    " d="M5,364.4c0-18,9.5-28.3,26.9-28.3s26.9,10.3,26.9,28.3V423
		c0,18-9.5,28.3-26.9,28.3S5,441,5,423V364.4z M22.7,424.1c0,8,3.5,11.1,9.2,11.1s9.2-3.1,9.2-11.1v-60.8c0-8-3.5-11.1-9.2-11.1
		s-9.2,3.1-9.2,11.1C22.7,363.3,22.7,424.1,22.7,424.1z"/>
	<path opacity="0.48" fill="#FFFFFF" enable-background="new    " d="M87.9,450H70.2V337.3h17.7v48.3H108v-48.3h18V450h-18v-48.3
		H87.9V450z"/>
	<path fill="#FFFFFF" d="M156.6,450h-17.7V337.3h17.7v48.3h20.1v-48.3h18V450h-18v-48.3h-20.1V450z"/>
	<path fill="#FFFFFF" d="M206.1,364.4c0-18,9.5-28.3,26.9-28.3s26.9,10.3,26.9,28.3V423c0,18-9.5,28.3-26.9,28.3
		c-17.4,0-26.9-10.3-26.9-28.3V364.4z M223.8,424.1c0,8,3.5,11.1,9.2,11.1c5.6,0,9.2-3.1,9.2-11.1v-60.8c0-8-3.5-11.1-9.2-11.1
		c-5.6,0-9.2,3.1-9.2,11.1V424.1z"/>
	<path opacity="0.48" fill="#FFFFFF" enable-background="new    " d="M271.3,337.3h28c17.7,0,26.4,9.8,26.4,27.8v57
		c0,18-8.7,27.8-26.4,27.8h-28L271.3,337.3L271.3,337.3z M289,353.4v80.5h10c5.6,0,9-2.9,9-10.9v-58.6c0-8-3.4-10.9-9-10.9
		C299,353.4,289,353.4,289,353.4z"/>
	<path opacity="0.48" fill="#FFFFFF" enable-background="new    " d="M354.7,384.8H379v16.1h-24.3v33h30.6V450H337V337.3h48.3v16.1
		h-30.6V384.8z"/>
	<path opacity="0.48" fill="#FFFFFF" enable-background="new    " d="M420,336.1c17.2,0,26.1,10.3,26.1,28.3v3.5h-16.7v-4.7
		c0-8-3.2-11.1-8.8-11.1c-5.6,0-8.9,3.1-8.9,11.1c0,23.2,34.6,27.5,34.6,59.7c0,18-9,28.3-26.4,28.3c-17.4,0-26.4-10.3-26.4-28.3
		V416h16.7v8c0,8,3.5,10.9,9.2,10.9c5.6,0,9.2-2.9,9.2-10.9c0-23.2-34.6-27.5-34.6-59.7C393.9,346.4,402.8,336.1,420,336.1z"/>
	<path opacity="0.48" fill="#FFFFFF" enable-background="new    " d="M456.4,337.3h17.7V450h-17.7V337.3z"/>
	<path opacity="0.48" fill="#FFFFFF" enable-background="new    " d="M513.5,387.2h24.8V423c0,18-9,28.3-26.4,28.3
		c-17.4,0-26.4-10.3-26.4-28.3v-58.6c0-18,9-28.3,26.4-28.3c17.4,0,26.4,10.3,26.4,28.3v10.9h-16.7v-12.1c0-8-3.5-11.1-9.2-11.1
		c-5.6,0-9.2,3.1-9.2,11.1v60.8c0,8,3.5,10.9,9.2,10.9c5.6,0,9.2-2.9,9.2-10.9v-20.8h-8L513.5,387.2L513.5,387.2z"/>
	<path opacity="0.48" fill="#FFFFFF" enable-background="new    " d="M565.5,368.4V450h-15.9V337.3h22.2l18.2,67.4v-67.4h15.8V450
		h-18.2L565.5,368.4z"/>
</g>
</svg>
